<svg xmlns="http://www.w3.org/2000/svg" fill="none" viewBox="0 0 190 31" height="31" width="190">
<path fill="#062A78" d="M66.1689 14.442L63.2949 7.99L60.4029 14.442H66.1689ZM62.6489 6.32699H63.9859L69.7489 19.069H68.2109L66.7289 15.725H59.8429L58.3429 19.069H56.8789L62.6489 6.32699ZM76.9059 18.109L85.0929 7.699H77.1769V6.41599H87.0489V7.374L78.8439 17.784H87.0489V19.067H76.9059V18.109ZM103.457 14.44L100.583 7.988L97.6909 14.44H103.457ZM99.9329 6.32499H101.27L107.035 19.067H105.499L104.017 15.723H97.1309L95.6309 19.067H94.1669L99.9329 6.32499ZM113.688 6.415H115.278L119.778 17.315L124.296 6.415H125.832L120.392 19.157H119.127L113.688 6.415ZM133.696 6.415H135.124V19.069H133.696V6.415ZM148.409 19.247C147.461 19.2576 146.52 19.0879 145.635 18.747C144.751 18.3864 143.94 17.8691 143.24 17.22L144.125 16.172C144.716 16.7269 145.394 17.1819 146.131 17.519C146.869 17.8267 147.663 17.9775 148.463 17.962C149.196 17.9996 149.919 17.7862 150.514 17.357C150.756 17.1793 150.952 16.9463 151.085 16.6776C151.219 16.4088 151.286 16.1121 151.282 15.812V15.776C151.286 15.507 151.236 15.24 151.137 14.99C151.026 14.7362 150.852 14.5152 150.631 14.348C150.327 14.1217 149.99 13.9448 149.631 13.824C149.096 13.6374 148.55 13.4864 147.995 13.372C147.353 13.2388 146.721 13.0577 146.106 12.83C145.626 12.6567 145.177 12.4064 144.778 12.089C144.442 11.818 144.176 11.4711 144.001 11.077C143.824 10.6474 143.738 10.1856 143.748 9.721V9.68499C143.743 9.20951 143.849 8.73939 144.055 8.311C144.261 7.88783 144.557 7.51481 144.923 7.21799C145.316 6.89999 145.763 6.65509 146.242 6.49499C146.778 6.31546 147.34 6.22691 147.905 6.23299C148.732 6.21657 149.555 6.34832 150.336 6.622C151.065 6.90192 151.745 7.29545 152.351 7.788L151.52 8.88799C150.99 8.44115 150.388 8.08685 149.74 7.83999C149.14 7.62259 148.507 7.51258 147.869 7.51499C147.164 7.47555 146.467 7.68314 145.899 8.102C145.673 8.27086 145.489 8.49053 145.364 8.74328C145.238 8.99603 145.174 9.27477 145.176 9.557V9.59299C145.172 9.86656 145.221 10.1383 145.321 10.393C145.436 10.6519 145.617 10.8763 145.845 11.044C146.164 11.2776 146.518 11.4605 146.893 11.586C147.454 11.78 148.027 11.9341 148.61 12.047C149.735 12.2363 150.802 12.681 151.728 13.347C152.059 13.6239 152.321 13.9734 152.495 14.3684C152.668 14.7634 152.748 15.1931 152.728 15.624V15.66C152.735 16.1696 152.624 16.6739 152.403 17.133C152.189 17.5693 151.884 17.9546 151.508 18.263C151.104 18.5895 150.64 18.835 150.143 18.986C149.582 19.1628 148.996 19.2515 148.408 19.249L148.409 19.247ZM164.224 7.734H159.977V6.415H169.917V7.734H165.67V19.069H164.224V7.734ZM186.04 14.439L183.166 7.98699L180.274 14.439H186.04ZM182.516 6.324H183.849L189.615 19.066H188.079L186.597 15.722H179.711L178.211 19.066H176.749L182.514 6.324H182.516Z"></path>
<path fill="#062A78" d="M7.356 12.742L11.034 19.114L14.712 25.484H0L3.678 19.114L7.356 12.742Z" clip-rule="evenodd" fill-rule="evenodd"></path>
<path fill="#006DB0" d="M36.7808 12.742L40.4588 19.114L44.1368 25.484H29.4248L33.1028 19.114L36.7808 12.742Z" clip-rule="evenodd" fill-rule="evenodd"></path>
<path fill="#0F3B9B" d="M14.712 25.484L18.39 19.114L22.068 12.742H7.35596L11.034 19.114L14.712 25.484Z" clip-rule="evenodd" fill-rule="evenodd"></path>
<path fill="#1182C8" d="M29.4248 25.484L33.1008 19.114L36.7789 12.742H22.0688L25.7468 19.114L29.4248 25.484Z" clip-rule="evenodd" fill-rule="evenodd"></path>
<path fill="#006DB0" d="M29.4248 0L33.1008 6.37199L36.7789 12.742H22.0688L25.7468 6.37199L29.4248 0Z" clip-rule="evenodd" fill-rule="evenodd"></path>
<path fill="#1182C8" d="M22.0689 12.742L25.7469 6.37199L29.4249 0H14.7129L18.3909 6.37199L22.0689 12.742Z" clip-rule="evenodd" fill-rule="evenodd"></path>
<path fill="#0F3B9B" d="M84.5851 25.569H88.1471V26.076H85.1411V27.76H87.8301V28.267H85.1411V29.992H88.1791V30.499H84.5791L84.5851 25.569ZM90.6361 25.569H91.2561L93.0091 29.814L94.7691 25.569H95.3691L93.2501 30.532H92.7571L90.6361 25.569ZM98.0951 25.569H101.657V26.076H98.6511V27.76H101.34V28.267H98.6511V29.992H101.692V30.499H98.0921L98.0951 25.569ZM104.568 25.569H105.089L108.189 29.518V25.569H108.731V30.497H108.288L105.109 26.46V30.501H104.567V25.573L104.568 25.569ZM113.188 26.083H111.534V25.569H115.406V26.083H113.751V30.497H113.188V26.083ZM123.73 26.083H122.079V25.569H125.951V26.083H124.297V30.497H123.734L123.73 26.083ZM128.746 25.569H132.308V26.076H129.302V27.76H131.991V28.267H129.302V29.992H132.343V30.499H128.743L128.746 25.569ZM137.472 30.581C137.143 30.5848 136.817 30.5215 136.513 30.3949C136.209 30.2684 135.934 30.0813 135.705 29.845C135.482 29.6128 135.306 29.3389 135.188 29.039C135.062 28.7231 134.999 28.3859 135.001 28.046V28.032C134.999 27.6943 135.063 27.3595 135.188 27.046C135.307 26.7445 135.483 26.4686 135.705 26.233C135.928 25.9989 136.196 25.8122 136.493 25.684C136.809 25.5482 137.149 25.4801 137.493 25.484C137.697 25.4819 137.902 25.5007 138.102 25.54C138.274 25.5751 138.441 25.6281 138.602 25.698C138.754 25.7641 138.897 25.8466 139.031 25.944C139.165 26.042 139.292 26.1489 139.411 26.264L139.031 26.672C138.828 26.4802 138.599 26.3167 138.352 26.186C137.987 26.0032 137.573 25.9428 137.171 26.0137C136.769 26.0847 136.4 26.2833 136.12 26.58C135.947 26.767 135.811 26.9856 135.72 27.224C135.623 27.4766 135.574 27.7453 135.576 28.016V28.03C135.573 28.3033 135.622 28.5747 135.72 28.83C135.811 29.0683 135.947 29.287 136.12 29.474C136.291 29.6568 136.497 29.8039 136.725 29.907C136.963 30.0136 137.221 30.0675 137.482 30.065C137.784 30.0732 138.083 30.0094 138.355 29.879C138.619 29.7403 138.861 29.5638 139.073 29.355L139.439 29.714C139.315 29.8423 139.181 29.961 139.039 30.069C138.9 30.175 138.75 30.2658 138.592 30.34C138.428 30.4169 138.255 30.4759 138.078 30.516C137.877 30.56 137.672 30.5812 137.466 30.579L137.472 30.581ZM142.172 25.569H142.728V27.76H145.572V25.571H146.128V30.499H145.572V28.281H142.728V30.499H142.172V25.569ZM149.279 25.569H149.8L152.9 29.518V25.569H153.442V30.497H152.998L149.819 26.46V30.501H149.279V25.569ZM158.899 30.069C159.167 30.072 159.432 30.0181 159.677 29.911C159.908 29.81 160.115 29.6626 160.286 29.478C160.458 29.2911 160.594 29.0737 160.686 28.837C160.784 28.5858 160.832 28.3184 160.83 28.049V28.035C160.832 27.7643 160.783 27.4956 160.686 27.243C160.595 27.0045 160.459 26.7862 160.283 26.6007C160.108 26.4152 159.898 26.2661 159.665 26.162C159.42 26.0525 159.155 25.9972 158.887 26C158.62 25.997 158.354 26.0509 158.109 26.158C157.879 26.259 157.671 26.4064 157.5 26.591C157.328 26.7778 157.192 26.9952 157.1 27.232C157.003 27.4832 156.954 27.7506 156.956 28.02V28.034C156.954 28.3047 157.003 28.5734 157.1 28.826C157.191 29.0645 157.328 29.2827 157.503 29.4682C157.678 29.6537 157.888 29.8028 158.121 29.907C158.366 30.0166 158.631 30.0719 158.899 30.069ZM158.885 30.583C158.534 30.5891 158.185 30.5209 157.861 30.383C157.565 30.2541 157.297 30.0672 157.074 29.8333C156.85 29.5994 156.676 29.3232 156.561 29.021C156.441 28.7124 156.381 28.384 156.382 28.053V28.039C156.381 27.7067 156.443 27.3772 156.565 27.068C156.694 26.756 156.884 26.4727 157.123 26.2345C157.363 25.9963 157.647 25.8079 157.96 25.6802C158.272 25.5525 158.607 25.4881 158.945 25.4906C159.283 25.4932 159.616 25.5626 159.927 25.695C160.224 25.8239 160.491 26.0108 160.715 26.2447C160.938 26.4786 161.112 26.7548 161.227 27.057C161.347 27.3656 161.408 27.6939 161.406 28.025C161.407 28.0258 161.408 28.0269 161.409 28.0281C161.409 28.0293 161.409 28.0306 161.409 28.032C161.409 28.0333 161.409 28.0346 161.409 28.0359C161.408 28.0371 161.407 28.0381 161.406 28.039C161.407 28.3713 161.345 28.7008 161.223 29.01C161.041 29.4802 160.72 29.8834 160.302 30.1654C159.884 30.4474 159.39 30.5945 158.886 30.587L158.885 30.583ZM164.337 25.571H164.893V29.985H167.667V30.499H164.337V25.571ZM172.753 30.071C173.021 30.074 173.286 30.0201 173.531 29.913C173.762 29.812 173.969 29.6646 174.14 29.48C174.312 29.2931 174.448 29.0757 174.54 28.839C174.638 28.5878 174.686 28.3204 174.684 28.051V28.037C174.686 27.7663 174.637 27.4976 174.54 27.245C174.449 27.0065 174.313 26.7882 174.137 26.6027C173.962 26.4172 173.752 26.2681 173.519 26.164C173.274 26.0545 173.009 25.9992 172.741 26.002C172.474 25.999 172.208 26.0529 171.963 26.16C171.733 26.261 171.525 26.4084 171.354 26.593C171.182 26.7798 171.046 26.9972 170.954 27.234C170.857 27.4852 170.808 27.7526 170.81 28.022V28.036C170.808 28.3067 170.857 28.5754 170.954 28.828C171.045 29.0665 171.182 29.2847 171.357 29.4702C171.532 29.6557 171.742 29.8048 171.975 29.909C172.22 30.0186 172.485 30.0739 172.753 30.071ZM172.739 30.585C172.388 30.5911 172.039 30.5229 171.715 30.385C171.419 30.2561 171.151 30.0692 170.928 29.8353C170.704 29.6014 170.53 29.3252 170.415 29.023C170.295 28.7144 170.235 28.386 170.236 28.055V28.041C170.235 27.7087 170.297 27.3792 170.419 27.07C170.548 26.7581 170.738 26.4749 170.977 26.2368C171.217 25.9987 171.501 25.8103 171.813 25.6827C172.126 25.555 172.461 25.4905 172.798 25.493C173.136 25.4954 173.469 25.5648 173.78 25.697C174.077 25.8258 174.344 26.0127 174.568 26.2466C174.791 26.4805 174.965 26.7567 175.08 27.059C175.2 27.3676 175.261 27.6959 175.259 28.027C175.26 28.0277 175.261 28.0287 175.262 28.0299C175.263 28.0312 175.263 28.0326 175.263 28.034C175.263 28.0354 175.263 28.0368 175.262 28.038C175.261 28.0393 175.26 28.0403 175.259 28.041C175.26 28.3733 175.198 28.7028 175.076 29.012C174.894 29.4822 174.573 29.8854 174.155 30.1674C173.737 30.4494 173.243 30.5965 172.739 30.589V30.585ZM180.479 30.585C180.121 30.59 179.765 30.522 179.434 30.385C179.138 30.2616 178.87 30.0782 178.649 29.8461C178.427 29.6141 178.256 29.3386 178.146 29.037C178.029 28.7204 177.971 28.3854 177.973 28.048V28.034C177.972 27.703 178.033 27.3746 178.152 27.066C178.266 26.7661 178.436 26.4903 178.652 26.253C178.879 26.0065 179.156 25.8107 179.464 25.6785C179.772 25.5464 180.105 25.4807 180.44 25.486C180.63 25.4846 180.82 25.4986 181.007 25.528C181.171 25.554 181.331 25.5966 181.486 25.655C181.631 25.7101 181.77 25.7798 181.901 25.863C182.033 25.9471 182.159 26.04 182.278 26.141L181.919 26.563C181.825 26.4792 181.725 26.4026 181.619 26.334C181.514 26.2647 181.402 26.2058 181.285 26.158C181.158 26.1065 181.026 26.0677 180.891 26.042C180.734 26.0127 180.575 25.9987 180.416 26C180.156 25.9975 179.899 26.0528 179.663 26.162C179.439 26.2659 179.238 26.4142 179.072 26.598C178.904 26.7869 178.773 27.0053 178.685 27.242C178.591 27.4905 178.543 27.7542 178.544 28.02V28.034C178.541 28.312 178.587 28.5882 178.681 28.85C178.767 29.0897 178.9 29.31 179.072 29.498C179.244 29.6826 179.452 29.8288 179.684 29.927C179.941 30.0337 180.216 30.0864 180.494 30.082C180.768 30.0842 181.039 30.035 181.294 29.937C181.52 29.8541 181.731 29.7367 181.921 29.589V28.36H180.421V27.86H182.455V29.824C182.202 30.0451 181.916 30.2247 181.607 30.356C181.251 30.509 180.867 30.5857 180.479 30.581V30.585ZM187.008 28.551L184.959 25.573H185.635L187.296 28.037L188.971 25.573H189.619L187.57 28.544V30.501H187.007L187.008 28.551Z"></path>
</svg>
