<?xml version="1.0" encoding="UTF-8"?> <svg xmlns="http://www.w3.org/2000/svg" width="159" height="33" viewBox="0 0 159 33" fill="none"><g clip-path="url(#clip0_251_17641)"><path d="M33.154 0H0V33H33.154V0Z" fill="black"></path><path d="M9.70196 23.9718V11.9479H7.62256V10.123H9.70196V8.64986C9.70196 7.71964 9.79135 7.02753 9.94786 6.57577C10.1938 5.96824 10.574 5.47411 11.1553 5.09579C11.7366 4.71748 12.5414 4.52844 13.5698 4.52844C14.2182 4.52844 14.956 4.60846 15.7608 4.76424L15.403 6.8117C14.9112 6.72491 14.464 6.68036 14.0169 6.68036C13.3014 6.68036 12.7873 6.83395 12.4967 7.1366C12.206 7.44148 12.0494 8.01106 12.0494 8.84559V10.123H14.7772V11.9479H12.0494V23.9718H9.70196Z" fill="#BBEB1B"></path><path d="M13.5651 27.0898L18.9196 8.07617H20.7262L15.3929 27.0898H13.5651Z" fill="#C6C4C5"></path><path d="M25.5735 28.0777L25.9176 30.0726C25.2725 30.2053 24.692 30.2738 24.1974 30.2738C23.3802 30.2738 22.7351 30.1432 22.2835 29.8842C21.8319 29.6252 21.5092 29.2849 21.3156 28.8632C21.1436 28.4394 21.0361 27.5512 21.0361 26.1963V18.5334H19.3802V16.7782H21.0361V13.4798L23.2941 12.1249V16.7782H25.5735V18.5334H23.2941V26.3225C23.2941 26.9668 23.337 27.3799 23.423 27.564C23.509 27.7481 23.6382 27.8937 23.8102 28.0028C24.0038 28.112 24.2403 28.1655 24.5843 28.1655C24.8424 28.1655 25.1649 28.1376 25.5735 28.0777Z" fill="#C6C4C5"></path><path d="M40.313 21.6876V8.11218H49.514V9.71419H42.1178V13.9183H48.5186V15.5203H42.1178V21.6876H40.313Z" fill="black"></path><path d="M51.6352 21.6876V11.8533H53.1423V13.3442C53.5269 12.6466 53.8804 12.1867 54.2029 11.9644C54.5316 11.7422 54.8914 11.631 55.2821 11.631C55.8465 11.631 56.4202 11.8101 57.0032 12.1681L56.4264 13.7146C56.0171 13.4738 55.6077 13.3534 55.1984 13.3534C54.8325 13.3534 54.5037 13.4646 54.2122 13.6868C53.9207 13.9029 53.7129 14.2054 53.5889 14.5943C53.4028 15.187 53.3098 15.8352 53.3098 16.5389V21.6876H51.6352Z" fill="black"></path><path d="M64.4459 20.4745C63.8257 20.9993 63.2272 21.3697 62.6504 21.5857C62.0798 21.8018 61.4658 21.9098 60.8083 21.9098C59.7229 21.9098 58.8887 21.6475 58.3057 21.1227C57.7227 20.5918 57.4312 19.9158 57.4312 19.0947C57.4312 18.6132 57.5397 18.1749 57.7568 17.7798C57.9801 17.3785 58.2685 17.0575 58.622 16.8167C58.9818 16.576 59.3849 16.3939 59.8315 16.2704C60.1602 16.184 60.6564 16.1006 61.32 16.0204C62.6721 15.8599 63.6676 15.6685 64.3064 15.4462C64.3126 15.2178 64.3157 15.0727 64.3157 15.011C64.3157 14.3319 64.1575 13.8535 63.8412 13.5757C63.4133 13.1991 62.7775 13.0108 61.934 13.0108C61.1463 13.0108 60.5633 13.1497 60.185 13.4275C59.8129 13.6992 59.5369 14.1838 59.357 14.8814L57.7196 14.6591C57.8685 13.9615 58.1134 13.3997 58.4546 12.9738C58.7957 12.5416 59.2888 12.2114 59.9338 11.9829C60.5788 11.7483 61.3262 11.631 62.1759 11.631C63.0194 11.631 63.7048 11.7298 64.232 11.9274C64.7592 12.1249 65.1468 12.3749 65.3949 12.6774C65.643 12.9738 65.8166 13.3504 65.9159 13.8072C65.9717 14.0912 65.9996 14.6036 65.9996 15.3444V17.5668C65.9996 19.1164 66.0337 20.0979 66.1019 20.5116C66.1764 20.919 66.319 21.311 66.5299 21.6876H64.7809C64.6072 21.3419 64.4956 20.9375 64.4459 20.4745ZM64.3064 16.7519C63.6986 16.9989 62.7868 17.2088 61.5712 17.3816C60.8827 17.4804 60.3959 17.5915 60.1106 17.715C59.8253 17.8384 59.6051 18.0206 59.45 18.2613C59.295 18.4959 59.2174 18.7583 59.2174 19.0484C59.2174 19.4929 59.3849 19.8633 59.7198 20.1597C60.061 20.456 60.5571 20.6042 61.2084 20.6042C61.8534 20.6042 62.4271 20.4653 62.9295 20.1874C63.4319 19.9035 63.8009 19.5176 64.0366 19.0299C64.2165 18.6533 64.3064 18.0977 64.3064 17.3631V16.7519Z" fill="black"></path><path d="M75.0518 18.0854L76.6985 18.2984C76.5186 19.4281 76.0566 20.314 75.3123 20.956C74.5742 21.5919 73.6656 21.9098 72.5864 21.9098C71.2343 21.9098 70.1458 21.4715 69.3209 20.5949C68.5022 19.7121 68.0929 18.4496 68.0929 16.8075C68.0929 15.7457 68.2696 14.8165 68.6232 14.0202C68.9767 13.2238 69.5132 12.6281 70.2326 12.233C70.9583 11.8317 71.746 11.631 72.5957 11.631C73.6687 11.631 74.5463 11.9027 75.2286 12.4459C75.9108 12.983 76.3481 13.7485 76.5403 14.7425L74.9122 14.9925C74.7572 14.3319 74.4812 13.835 74.0842 13.5016C73.6935 13.1682 73.219 13.0016 72.6608 13.0016C71.8173 13.0016 71.132 13.3041 70.6048 13.9091C70.0776 14.5079 69.814 15.4586 69.814 16.7612C69.814 18.0823 70.0683 19.0423 70.5769 19.6411C71.0855 20.2399 71.7491 20.5393 72.5678 20.5393C73.2252 20.5393 73.7741 20.3387 74.2145 19.9374C74.6548 19.5361 74.9339 18.9188 75.0518 18.0854Z" fill="black"></path><path d="M81.7874 20.1967L82.0293 21.6691C81.5579 21.7679 81.1362 21.8172 80.7641 21.8172C80.1562 21.8172 79.6849 21.7215 79.3499 21.5302C79.015 21.3388 78.7793 21.0888 78.6429 20.7801C78.5064 20.4653 78.4382 19.8078 78.4382 18.8077V13.1497H77.2102V11.8533H78.4382V9.41787L80.1035 8.41777V11.8533H81.7874V13.1497H80.1035V18.9003C80.1035 19.3756 80.1314 19.6812 80.1873 19.817C80.2493 19.9529 80.3454 20.0609 80.4757 20.1411C80.6121 20.2214 80.8044 20.2615 81.0525 20.2615C81.2385 20.2615 81.4835 20.2399 81.7874 20.1967Z" fill="black"></path><path d="M83.4434 10.029V8.11218H85.118V10.029H83.4434ZM83.4434 21.6876V11.8533H85.118V21.6876H83.4434Z" fill="black"></path><path d="M87.0531 16.7704C87.0531 14.9493 87.5617 13.6004 88.5789 12.7237C89.4286 11.9953 90.4644 11.631 91.6862 11.631C93.0445 11.631 94.1547 12.0755 95.0168 12.9645C95.8789 13.8473 96.31 15.0697 96.31 16.6315C96.31 17.8971 96.1177 18.8941 95.7332 19.6226C95.3549 20.3449 94.7998 20.9067 94.0679 21.3079C93.3422 21.7092 92.5483 21.9098 91.6862 21.9098C90.3031 21.9098 89.1836 21.4684 88.3277 20.5856C87.478 19.7028 87.0531 18.4311 87.0531 16.7704ZM88.7743 16.7704C88.7743 18.0298 89.0503 18.9744 89.6023 19.6041C90.1543 20.2276 90.8489 20.5393 91.6862 20.5393C92.5173 20.5393 93.2089 20.2245 93.7609 19.5948C94.3129 18.9651 94.5889 18.0051 94.5889 16.7149C94.5889 15.4987 94.3098 14.5789 93.7516 13.9554C93.1996 13.3257 92.5111 13.0108 91.6862 13.0108C90.8489 13.0108 90.1543 13.3226 89.6023 13.9461C89.0503 14.5696 88.7743 15.5111 88.7743 16.7704Z" fill="black"></path><path d="M98.2823 21.6876V11.8533H99.7895V13.2516C100.515 12.1712 101.563 11.631 102.934 11.631C103.529 11.631 104.075 11.7391 104.571 11.9552C105.074 12.1651 105.449 12.4429 105.697 12.7886C105.945 13.1343 106.119 13.5448 106.218 14.0202C106.28 14.3288 106.311 14.869 106.311 15.6407V21.6876H104.637V15.7055C104.637 15.0264 104.571 14.5202 104.441 14.1869C104.311 13.8473 104.078 13.5788 103.743 13.3812C103.415 13.1775 103.027 13.0756 102.58 13.0756C101.867 13.0756 101.25 13.301 100.729 13.7516C100.214 14.2023 99.9569 15.0573 99.9569 16.3167V21.6876H98.2823Z" fill="black"></path><path d="M115.335 20.4745C114.715 20.9993 114.117 21.3697 113.54 21.5857C112.969 21.8018 112.355 21.9098 111.698 21.9098C110.612 21.9098 109.778 21.6475 109.195 21.1227C108.612 20.5918 108.321 19.9158 108.321 19.0947C108.321 18.6132 108.429 18.1749 108.646 17.7798C108.87 17.3785 109.158 17.0575 109.511 16.8167C109.871 16.576 110.274 16.3939 110.721 16.2704C111.05 16.184 111.546 16.1006 112.209 16.0204C113.562 15.8599 114.557 15.6685 115.196 15.4462C115.202 15.2178 115.205 15.0727 115.205 15.011C115.205 14.3319 115.047 13.8535 114.731 13.5757C114.303 13.1991 113.667 13.0108 112.823 13.0108C112.036 13.0108 111.453 13.1497 111.074 13.4275C110.702 13.6992 110.426 14.1838 110.246 14.8814L108.609 14.6591C108.758 13.9615 109.003 13.3997 109.344 12.9738C109.685 12.5416 110.178 12.2114 110.823 11.9829C111.468 11.7483 112.216 11.631 113.065 11.631C113.909 11.631 114.594 11.7298 115.121 11.9274C115.649 12.1249 116.036 12.3749 116.284 12.6774C116.532 12.9738 116.706 13.3504 116.805 13.8072C116.861 14.0912 116.889 14.6036 116.889 15.3444V17.5668C116.889 19.1164 116.923 20.0979 116.991 20.5116C117.066 20.919 117.208 21.311 117.419 21.6876H115.67C115.497 21.3419 115.385 20.9375 115.335 20.4745ZM115.196 16.7519C114.588 16.9989 113.676 17.2088 112.461 17.3816C111.772 17.4804 111.285 17.5915 111 17.715C110.715 17.8384 110.495 18.0206 110.339 18.2613C110.184 18.4959 110.107 18.7583 110.107 19.0484C110.107 19.4929 110.274 19.8633 110.609 20.1597C110.95 20.456 111.447 20.6042 112.098 20.6042C112.743 20.6042 113.317 20.4653 113.819 20.1874C114.321 19.9035 114.69 19.5176 114.926 19.0299C115.106 18.6533 115.196 18.0977 115.196 17.3631V16.7519Z" fill="black"></path><path d="M119.457 21.6876V8.11218H121.131V21.6876H119.457Z" fill="black"></path><path d="M127.42 21.6876V9.71419H122.927V8.11218H133.737V9.71419H129.225V21.6876H127.42Z" fill="black"></path><path d="M139.71 20.4745C139.09 20.9993 138.491 21.3697 137.915 21.5857C137.344 21.8018 136.73 21.9098 136.073 21.9098C134.987 21.9098 134.153 21.6475 133.57 21.1227C132.987 20.5918 132.695 19.9158 132.695 19.0947C132.695 18.6132 132.804 18.1749 133.021 17.7798C133.244 17.3785 133.533 17.0575 133.886 16.8167C134.246 16.576 134.649 16.3939 135.096 16.2704C135.424 16.184 135.921 16.1006 136.584 16.0204C137.936 15.8599 138.932 15.6685 139.571 15.4462C139.577 15.2178 139.58 15.0727 139.58 15.011C139.58 14.3319 139.422 13.8535 139.106 13.5757C138.678 13.1991 138.042 13.0108 137.198 13.0108C136.411 13.0108 135.828 13.1497 135.449 13.4275C135.077 13.6992 134.801 14.1838 134.621 14.8814L132.984 14.6591C133.133 13.9615 133.378 13.3997 133.719 12.9738C134.06 12.5416 134.553 12.2114 135.198 11.9829C135.843 11.7483 136.591 11.631 137.44 11.631C138.284 11.631 138.969 11.7298 139.496 11.9274C140.023 12.1249 140.411 12.3749 140.659 12.6774C140.907 12.9738 141.081 13.3504 141.18 13.8072C141.236 14.0912 141.264 14.6036 141.264 15.3444V17.5668C141.264 19.1164 141.298 20.0979 141.366 20.5116C141.441 20.919 141.583 21.311 141.794 21.6876H140.045C139.872 21.3419 139.76 20.9375 139.71 20.4745ZM139.571 16.7519C138.963 16.9989 138.051 17.2088 136.836 17.3816C136.147 17.4804 135.66 17.5915 135.375 17.715C135.09 17.8384 134.869 18.0206 134.714 18.2613C134.559 18.4959 134.482 18.7583 134.482 19.0484C134.482 19.4929 134.649 19.8633 134.984 20.1597C135.325 20.456 135.821 20.6042 136.473 20.6042C137.118 20.6042 137.691 20.4653 138.194 20.1874C138.696 19.9035 139.065 19.5176 139.301 19.0299C139.481 18.6533 139.571 18.0977 139.571 17.3631V16.7519Z" fill="black"></path><path d="M142.752 21.6876L146.362 16.576L143.022 11.8533H145.116L146.632 14.1591C146.917 14.5974 147.147 14.9647 147.32 15.261C147.593 14.8536 147.844 14.4924 148.074 14.1776L149.739 11.8533H151.74L148.325 16.4834L152 21.6876H149.944L147.916 18.6317L147.376 17.8076L144.781 21.6876H142.752Z" fill="black"></path><path d="M156.008 4.61597C156.55 4.61597 157.035 4.74197 157.464 4.99397C157.894 5.23663 158.23 5.5773 158.472 6.01597C158.715 6.4453 158.836 6.93063 158.836 7.47197C158.836 8.0133 158.715 8.5033 158.472 8.94197C158.23 9.38063 157.894 9.72597 157.464 9.97797C157.035 10.2206 156.55 10.342 156.008 10.342C155.458 10.342 154.968 10.2206 154.538 9.97797C154.109 9.72597 153.773 9.38063 153.53 8.94197C153.288 8.5033 153.166 8.0133 153.166 7.47197C153.166 6.93063 153.288 6.4453 153.53 6.01597C153.773 5.5773 154.109 5.23663 154.538 4.99397C154.968 4.74197 155.458 4.61597 156.008 4.61597ZM156.008 9.78197C156.68 9.78197 157.222 9.5673 157.632 9.13797C158.052 8.70863 158.262 8.1533 158.262 7.47197C158.262 6.79063 158.052 6.2353 157.632 5.80597C157.222 5.37663 156.68 5.16197 156.008 5.16197C155.327 5.16197 154.781 5.37663 154.37 5.80597C153.969 6.2353 153.768 6.79063 153.768 7.47197C153.768 8.1533 153.969 8.70863 154.37 9.13797C154.781 9.5673 155.327 9.78197 156.008 9.78197ZM157.268 6.88397C157.268 7.10797 157.208 7.2993 157.086 7.45797C156.974 7.6073 156.816 7.71463 156.61 7.77997L157.394 8.94197L156.512 8.95597L155.84 7.83597H155.602V8.95597H154.874V5.94597H156.218C156.536 5.94597 156.788 6.02997 156.974 6.19797C157.17 6.36597 157.268 6.59463 157.268 6.88397ZM155.602 7.23397H156.176C156.279 7.23397 156.363 7.20597 156.428 7.14997C156.503 7.09397 156.54 7.01463 156.54 6.91197C156.54 6.8093 156.503 6.73463 156.428 6.68797C156.363 6.63197 156.279 6.60397 156.176 6.60397H155.602V7.23397Z" fill="black"></path></g><defs><clipPath id="clip0_251_17641"><rect width="159" height="33" fill="white"></rect></clipPath></defs></svg> 