<?xml version="1.0" encoding="UTF-8"?> <svg xmlns="http://www.w3.org/2000/svg" width="105" height="27" viewBox="0 0 105 27" fill="none"><g clip-path="url(#clip0_310_1019)"><path d="M35.9007 22.4911H31.0739L31.5664 13.4343L31.0739 4.37744H35.9007L35.3809 13.4343L35.9007 22.4911Z" fill="white"></path><path d="M77.3869 4.37744H72.6773L65.2462 22.4911H70.2185L71.4423 18.7178H78.6212L79.845 22.4911H84.8173L77.3861 4.37744H77.3869ZM72.5544 15.2464L75.0325 7.91129L77.591 15.2464H72.5544Z" fill="white"></path><path d="M105 4.37744H100.173L101.212 18.7178L92.9364 4.37744H86.8761V22.4911H91.703L90.664 8.15152L98.9389 22.4911H105V4.37744Z" fill="white"></path><path d="M56.7664 4.37744L51.6028 17.1203L46.4392 4.37744H40.0559V22.4911H44.8852L43.8438 8.15152L49.6462 22.4911H53.5594L59.3618 8.15152L58.3197 22.4911H63.1498V4.37744H56.7664Z" fill="white"></path><path d="M21.0151 8.90346C20.5941 9.10605 19.5711 9.51205 19.4209 9.54088C19.2706 9.51205 18.2477 9.10605 17.8266 8.90346C17.4056 8.70086 17.1645 8.4398 17.0448 8.20838C16.9243 7.97695 16.8945 7.39719 16.8945 6.73094V4.37744H21.9488V6.73094C21.9488 7.39719 21.9191 7.97615 21.7986 8.20838C21.678 8.4398 21.4378 8.70086 21.0167 8.90346H21.0151Z" fill="white"></path><path d="M21.8428 15.9809C21.4008 15.8271 20.39 15.3931 20.263 15.3074C20.1771 15.1809 19.7415 14.1735 19.5872 13.7331C19.433 13.2927 19.4482 12.9387 19.527 12.6905C19.6065 12.4422 19.9963 12.0114 20.4687 11.5398L22.1385 9.87573L23.9256 11.6567L25.7127 13.4376L24.0429 15.1016C23.5704 15.5725 23.1381 15.9609 22.8882 16.0401C22.6391 16.1194 22.2839 16.1338 21.842 15.9801L21.8428 15.9809Z" fill="white"></path><path d="M17.4064 21.5678C17.2031 21.1482 16.7957 20.1288 16.7668 19.9791C16.7957 19.8293 17.2031 18.8099 17.4064 18.3903C17.6097 17.9707 17.8716 17.7305 18.1039 17.6112C18.3361 17.4911 18.9178 17.4614 19.5864 17.4614H21.948V19.9799V22.4983H19.5864C18.9178 22.4983 18.3369 22.4687 18.1039 22.3486C17.8716 22.2285 17.6097 21.989 17.4064 21.5694V21.5678Z" fill="white"></path><path d="M10.3047 22.3926C10.459 21.9522 10.8945 20.9448 10.9805 20.8183C11.1074 20.7326 12.1183 20.2985 12.5602 20.1448C13.0022 19.991 13.3574 20.0063 13.6065 20.0847C13.8556 20.164 14.2879 20.5524 14.7612 21.0233L16.4309 22.6873L14.6438 24.4682L12.8568 26.2491L11.187 24.5851C10.7145 24.1143 10.3248 23.6834 10.2452 23.4344C10.1657 23.1862 10.1512 22.8322 10.3055 22.3918L10.3047 22.3926Z" fill="white"></path><path d="M4.69834 17.9716C5.11939 17.7691 6.14231 17.3631 6.29257 17.3342C6.44283 17.3631 7.46575 17.7691 7.8868 17.9716C8.30786 18.1742 8.54892 18.4353 8.66865 18.6667C8.78918 18.8982 8.81891 19.4779 8.81891 20.1442V22.4977H6.29177H3.76462V20.1442C3.76462 19.4779 3.79435 18.899 3.91488 18.6667C4.03541 18.4353 4.27567 18.1742 4.69673 17.9716H4.69834Z" fill="white"></path><path d="M8.30698 5.30709C8.51028 5.7267 8.91768 6.7461 8.94661 6.89584C8.91768 7.04559 8.51028 8.06499 8.30698 8.48459C8.10369 8.9042 7.84173 9.14444 7.60951 9.26375C7.37728 9.38387 6.79552 9.4135 6.12697 9.4135H3.76535V6.89504V4.37659H6.12697C6.79552 4.37659 7.37648 4.40622 7.60951 4.52633C7.84173 4.64645 8.10369 4.88588 8.30698 5.30549V5.30709Z" fill="white"></path><path d="M15.4087 4.48236C15.2544 4.92279 14.8189 5.93018 14.7329 6.0567C14.606 6.14238 13.5951 6.57641 13.1532 6.73016C12.7112 6.88391 12.3561 6.86869 12.107 6.79022C11.8579 6.71094 11.4256 6.32256 10.9523 5.8517L9.2825 4.18768L11.0696 2.40674L12.8567 0.625L14.5264 2.28902C14.9989 2.75988 15.3886 3.1907 15.4682 3.43975C15.5477 3.68799 15.5622 4.04193 15.4079 4.48236H15.4087Z" fill="white"></path><path d="M3.87067 10.8941C4.31262 11.0478 5.32348 11.4818 5.45044 11.5675C5.53642 11.6941 5.97194 12.7014 6.12622 13.1419C6.28051 13.5823 6.26524 13.9362 6.18649 14.1845C6.10694 14.4327 5.71722 14.8635 5.24474 15.3352L3.57497 16.9992L1.78789 15.2183L0 13.4374L1.66977 11.7733C2.14225 11.3025 2.57456 10.9141 2.82446 10.8348C3.07356 10.7555 3.42873 10.7411 3.87067 10.8949V10.8941Z" fill="white"></path></g><defs><clipPath id="clip0_310_1019"><rect width="105" height="25.625" fill="white" transform="translate(0 0.625)"></rect></clipPath></defs></svg> 