<svg xmlns="http://www.w3.org/2000/svg" width="341" height="83" viewBox="0 0 341 83" fill="none"><path d="M0 25.8291H12.78V30.9391C15.24 28.3691 17.34 26.6191 19.08 25.7091C20.93 24.7591 23.26 24.2891 26.07 24.2891C32.32 24.2891 37.26 27.0191 40.89 32.4691C44.9 27.0191 50.34 24.2891 57.19 24.2891C69.65 24.2891 75.88 31.8391 75.88 46.9491V81.1391H63.04V50.4091C63.04 45.1091 62.4 41.3591 61.11 39.1591C59.78 36.9291 57.61 35.8091 54.58 35.8091C51.06 35.8091 48.49 37.1391 46.88 39.7891C45.27 42.4391 44.47 46.6991 44.47 52.5691V81.1391H31.63V50.5791C31.63 40.7291 28.79 35.8091 23.11 35.8091C19.51 35.8091 16.89 37.1491 15.24 39.8391C13.59 42.5291 12.77 46.7691 12.77 52.5591V81.1291H0V25.8291Z" fill="url(#paint0_linear_7862_13468)"></path><path d="M83.5803 53.0891C83.5803 45.0991 86.4403 38.2991 92.1603 32.6991C97.8803 27.0991 104.85 24.2891 113.06 24.2891C121.27 24.2891 128.32 27.1091 134.08 32.7491C139.76 38.3891 142.6 45.3191 142.6 53.5391C142.6 61.7591 139.74 68.7791 134.02 74.3891C128.26 79.9591 121.2 82.7391 112.83 82.7391C104.46 82.7391 97.5903 79.8991 91.9803 74.2191C86.3803 68.6191 83.5703 61.5691 83.5703 53.0891H83.5803ZM96.6403 53.3191C96.6403 58.8491 98.1203 63.2191 101.07 66.4391C104.1 69.6991 108.09 71.3191 113.05 71.3191C118.01 71.3191 122.04 69.7091 125.03 66.4891C128.02 63.2691 129.52 58.9691 129.52 53.5991C129.52 48.2291 128.02 43.9291 125.03 40.7091C122 37.4491 118.01 35.8291 113.05 35.8291C108.09 35.8291 104.21 37.4591 101.18 40.7091C98.1503 43.9691 96.6403 48.1691 96.6403 53.3191Z" fill="url(#paint1_linear_7862_13468)"></path><path d="M164.291 69.1103H197.181V81.1503H138.961L174.801 37.7503H146.571V25.8203H200.081L164.301 69.1003L164.291 69.1103Z" fill="url(#paint2_linear_7862_13468)"></path><path d="M242.671 25.8269H255.511V81.1469H242.671V75.3569C237.411 80.2769 231.741 82.7369 225.691 82.7369C218.041 82.7369 211.721 79.9769 206.721 74.4469C201.761 68.8069 199.281 61.7569 199.281 53.3169C199.281 44.8769 201.761 38.1169 206.721 32.5869C211.681 27.0569 217.891 24.2969 225.351 24.2969C231.791 24.2969 237.561 26.9469 242.671 32.2469V25.8269ZM212.341 53.3169C212.341 58.6169 213.761 62.9369 216.601 66.2669C219.521 69.6369 223.191 71.3269 227.621 71.3269C232.351 71.3269 236.181 69.6969 239.091 66.4469C242.011 63.0769 243.461 58.7969 243.461 53.6069C243.461 48.4169 242.001 44.1369 239.091 40.7669C236.171 37.4769 232.391 35.8269 227.731 35.8269C223.341 35.8269 219.661 37.4969 216.711 40.8269C213.791 44.1969 212.341 48.3669 212.341 53.3269V53.3169Z" fill="url(#paint3_linear_7862_13468)"></path><path d="M260.98 8.23C260.98 6 261.79 4.07 263.42 2.44C265.05 0.81 267 0 269.27 0C271.54 0 273.55 0.81 275.18 2.44C276.81 4.03 277.62 5.98 277.62 8.29C277.62 10.6 276.81 12.57 275.18 14.2C273.59 15.83 271.64 16.64 269.33 16.64C267.02 16.64 265.05 15.83 263.42 14.2C261.79 12.57 260.98 10.58 260.98 8.24V8.23ZM275.69 25.83V81.15H262.91V25.83H275.69Z" fill="url(#paint4_linear_7862_13468)"></path><path d="M327.302 61.9072C326.612 64.2672 325.142 65.9272 324.562 66.5572C321.572 69.7772 317.572 71.3872 312.582 71.3872C307.592 71.3872 303.622 69.7572 300.602 66.5072C297.652 63.2872 296.172 58.9172 296.172 53.3872C296.172 48.2372 297.682 44.0372 300.712 40.7772C303.742 37.5172 307.702 35.8972 312.582 35.8972C317.462 35.8972 321.532 37.5272 324.562 40.7772C325.092 41.3472 326.502 42.9872 327.302 46.6172H340.162C339.522 41.1372 336.532 35.7372 333.602 32.8272C327.842 27.1872 320.842 24.3672 312.582 24.3672C304.322 24.3672 297.392 27.1672 291.682 32.7772C285.962 38.3772 283.102 45.1772 283.102 53.1672C283.102 61.6472 285.902 68.6972 291.512 74.2972C297.112 79.9772 304.062 82.8172 312.362 82.8172C320.662 82.8172 327.792 80.0372 333.552 74.4672C336.542 71.5372 339.742 66.6472 340.172 61.9272H327.312L327.302 61.9072Z" fill="url(#paint5_linear_7862_13468)"></path><defs><linearGradient id="paint0_linear_7862_13468" x1="-3.14" y1="52.6491" x2="330.44" y2="53.4691" gradientUnits="userSpaceOnUse"><stop stop-color="#5F31DD"></stop><stop offset="1" stop-color="#7D78F5"></stop></linearGradient><linearGradient id="paint1_linear_7862_13468" x1="-3.1397" y1="53.2291" x2="330.44" y2="54.0491" gradientUnits="userSpaceOnUse"><stop stop-color="#5F31DD"></stop><stop offset="1" stop-color="#7D78F5"></stop></linearGradient><linearGradient id="paint2_linear_7862_13468" x1="-3.13905" y1="53.0703" x2="330.441" y2="53.8903" gradientUnits="userSpaceOnUse"><stop stop-color="#5F31DD"></stop><stop offset="1" stop-color="#7D78F5"></stop></linearGradient><linearGradient id="paint3_linear_7862_13468" x1="-3.13874" y1="52.9569" x2="330.441" y2="53.7769" gradientUnits="userSpaceOnUse"><stop stop-color="#5F31DD"></stop><stop offset="1" stop-color="#7D78F5"></stop></linearGradient><linearGradient id="paint4_linear_7862_13468" x1="-3.09928" y1="39.91" x2="330.47" y2="40.73" gradientUnits="userSpaceOnUse"><stop stop-color="#5F31DD"></stop><stop offset="1" stop-color="#7D78F5"></stop></linearGradient><linearGradient id="paint5_linear_7862_13468" x1="-3.13848" y1="52.7972" x2="330.442" y2="53.6172" gradientUnits="userSpaceOnUse"><stop stop-color="#5F31DD"></stop><stop offset="1" stop-color="#7D78F5"></stop></linearGradient></defs></svg>