<svg width="196" height="58" viewBox="0 0 196 58" fill="none" xmlns="http://www.w3.org/2000/svg">
<g clip-path="url(#clip0)">
<path d="M142.965 38.4825C141.794 38.4825 140.514 37.5821 140.301 35.6218C138.433 38.8524 135.821 43.1406 131.343 43.1406C128.996 43.1406 127.077 41.0765 127.824 37.1577C127.129 38.4825 125.742 40.1753 124.57 41.3395C123.45 42.4518 121.797 43.2455 120.303 43.0864C114.439 42.4518 119.665 32.3411 121.53 29.1116C123.077 26.5182 124.517 26.2016 126.863 26.2016C124.57 26.9426 117.425 40.9701 121.157 42.0283C122.011 42.2929 123.557 41.4992 124.57 40.3341C127.715 36.8925 129.262 32.5536 131.663 28.4776C133.209 25.8836 134.648 25.5656 136.994 25.5656C135.447 26.0413 130.489 34.5637 129.955 38.7469C129.583 41.7639 131.608 42.1352 132.623 42.0283C136.194 41.7112 139.128 36.3112 140.248 33.5047C139.981 32.4994 139.768 27.736 140.727 25.4073C141.366 23.8722 143.5 23.2368 143.5 25.9363C143.5 27.8952 142.647 30.3303 142.326 31.1241C142.06 31.812 141.634 32.8709 141.048 34.0888C140.994 36.2587 141.9 37.7937 143.126 37.7937C145.154 37.7937 146.432 35.5705 147.178 34.0888C147.392 33.612 148.085 33.5589 147.659 34.5115C146.807 36.4176 145.259 38.4825 142.965 38.4825" fill="#D2232A"/>
<path d="M155.924 22.3901C154.912 22.3901 154.272 21.5422 154.431 20.5369C154.591 19.5301 155.605 18.7366 156.618 18.7366C157.632 18.7366 158.271 19.5301 158.11 20.5369C157.899 21.5422 156.938 22.3901 155.924 22.3901ZM152.672 41.3391C151.553 42.4514 149.899 43.3512 148.407 43.086C142.221 42.0278 148.193 31.7054 150.06 28.4772C151.605 25.8831 153.045 25.5652 155.392 25.5652C153.099 26.3061 145.527 40.9697 149.259 42.0278C150.113 42.2925 151.66 41.4455 152.672 40.3337C154.272 38.5876 155.553 36.4691 156.938 34.0348C157.259 33.5043 157.632 33.9806 157.312 34.5633C156.032 36.8921 154.698 39.3283 152.672 41.3391Z" fill="#D2232A"/>
<path d="M157.578 34.5636C158.911 34.5114 159.391 35.6218 159.176 35.994C158.43 35.7278 157.685 35.994 157.098 36.4695C156.138 37.2104 155.444 38.6921 155.444 39.9633C155.391 42.6637 158.271 42.9803 160.084 41.8166C161.524 40.8631 162.27 39.224 162.697 37.4229C163.497 34.1401 163.177 30.1177 163.285 28.5297C163.337 27.2063 163.817 25.8302 164.192 25.5127C162.11 26.3065 158.644 32.1821 157.578 34.5636V34.5636ZM166.962 41.0764C165.577 42.3456 163.763 42.822 162.804 42.7179C162.217 42.6637 161.897 42.5045 161.63 42.2929C160.831 42.7179 159.872 42.9803 158.858 43.1405C157.045 43.3516 155.339 42.9289 154.484 41.182C153.899 39.9119 154.005 38.1108 154.484 36.9457C155.019 35.7278 155.766 34.7234 156.618 34.5636C157.526 32.4474 160.404 27.5776 162.697 25.4594C163.177 24.9309 165.257 22.9723 166.802 22.7071C168.883 22.3355 169.096 24.6138 167.175 25.2475C166.802 25.3011 166.217 25.5127 164.937 25.5127C163.71 27.2591 165.896 31.8647 165.949 34.0352C166.057 36.6813 165.096 39.5406 163.069 41.3394L162.324 41.8694C163.549 42.2401 165.577 41.3936 166.962 40.0174C168.669 38.4289 169.842 36.5236 170.909 34.5636C171.177 34.0888 171.654 34.5636 171.282 35.253C170.215 37.2104 168.563 39.5919 166.962 41.0764" fill="#D2232A"/>
<path d="M190.104 6.56048C184.931 11.3783 180.078 19.9018 177.04 26.2529C181.305 23.1318 184.453 20.1123 187.972 16.4065C189.465 14.8721 192.823 11.3263 194.051 8.46623C195.863 4.07486 192.451 4.33778 190.104 6.56048ZM187.597 18.048C183.226 22.2306 178.96 25.5119 176.56 27.3125C175.12 30.3295 174.161 32.711 173.893 33.663C175.014 31.9703 176.667 29.6935 177.786 28.5289C179.386 26.8881 181.093 25.6717 182.639 25.5119C186.211 25.1947 186.691 27.3644 185.411 30.3295C184.453 32.4985 183.067 34.7762 181.999 36.7866C181.679 37.3685 180.719 39.2745 180.506 40.6513C180.345 41.7103 180.879 42.1866 181.518 42.1866C182.692 42.1866 183.812 41.2339 184.611 40.3332C186.211 38.5872 187.49 36.4687 188.879 34.0344C189.199 33.5038 189.624 33.9802 189.305 34.5628C188.025 36.8916 186.638 39.3279 184.611 41.3386C183.492 42.4509 181.893 43.5091 179.919 42.9795C177.52 42.3449 177.413 39.6459 178.106 37.7929C179.279 34.6684 181.84 31.9703 183.278 28.9524C184.132 27.2583 183.278 26.3057 182.372 26.4118C180.987 26.5173 179.386 27.7873 177.947 29.4818C176.56 31.0168 175.119 33.1353 173.84 35.3586C172.613 37.4221 171.174 39.8564 170.428 41.3928C169.575 43.2447 168.509 42.7684 167.814 42.7684C168.456 40.3863 170.322 36.0987 172.72 30.3295C176.026 22.4944 182.744 7.46228 192.024 4.55025C192.878 4.39196 193.89 4.23315 194.69 4.76134C195.436 5.23761 195.756 6.56048 194.957 8.52128C193.836 11.3263 191.063 14.6605 187.597 18.048" fill="#D2232A"/>
<path d="M48.2724 11.4311C55.5919 11.4311 54.7985 3.65049 47.1582 3.65049C43.2333 3.65049 39.1479 4.70862 37.185 8.04362C41.112 9.94798 44.8247 11.4311 48.2724 11.4311ZM35.01 8.14971C28.7508 5.29047 21.8028 1.90356 14.1109 1.90356C7.95688 1.90356 1.59109 5.55661 1.59109 12.4373C1.59109 17.5717 5.30545 22.6542 11.5644 22.6542C11.9896 22.6542 11.9896 23.2888 11.5644 23.2888C4.66867 23.2888 0 17.2003 0 11.2728C0 3.54353 7.21379 -0.00219153 13.9517 -0.00219153C21.9614 -0.00219153 29.1761 4.02068 35.7003 7.30121C38.5655 3.91429 43.127 3.01447 47.2646 3.01447C56.9714 3.01447 58.2442 12.0666 47.8491 12.0666C44.3465 12.0666 40.687 10.6895 36.7077 8.94403C33.5787 16.0373 42.2781 23.977 42.2781 32.7111C42.2781 43.9336 32.0939 51.9258 19.575 51.9258C10.6626 51.9258 6.15401 47.0033 6.15401 40.9146C6.15401 25.0884 32.7813 15.6132 32.7813 29.5352C32.7813 34.3005 28.858 38.9572 25.0382 41.3387C20.6888 44.0919 15.6488 44.6751 12.8905 43.6161C12.5184 43.5091 12.7319 43.1398 13.1028 43.2448C15.9146 43.7211 20.5819 42.7685 24.5065 40.2281C27.902 38.0046 31.7218 33.8756 31.7218 29.5352C31.7218 16.7246 8.27501 26.9418 8.27501 41.234C8.27501 46.422 11.7244 50.7615 19.3091 50.7615C30.5014 50.7615 37.9281 42.5038 37.9281 33.1354C37.9281 24.9301 30.237 15.3485 35.01 8.14971" fill="#55C5CE"/>
<path d="M62.0623 41.3391C60.949 42.4514 59.3034 43.3512 57.8195 43.086C55.0071 42.6091 54.6893 40.2285 55.3792 37.4225C54.5307 38.7987 53.5752 40.1749 52.4097 41.3391C51.2937 42.4514 49.6491 43.2451 48.1649 43.086C42.3301 42.4514 47.5281 32.3407 49.3839 29.1112C50.9229 26.5178 52.3554 26.2012 54.6893 26.2012C52.4097 26.9421 45.3011 40.9697 49.0137 42.0278C49.8626 42.2925 51.4003 41.4988 52.4097 40.3337C55.5378 36.8921 57.0769 32.5531 59.462 28.4772C61.0011 25.8831 62.4338 25.5652 64.768 25.5652C62.4876 26.3061 54.9548 40.9697 58.6669 42.0278C59.5163 42.2925 61.0553 41.4455 62.0623 40.3337C63.6533 38.5876 64.9281 36.4691 66.3065 34.0348C66.6247 33.5043 66.9962 33.9806 66.6781 34.5633C65.4042 36.8921 64.0787 39.3283 62.0623 41.3391" fill="#55C5CE"/>
<path d="M72.1411 29.4288C69.7018 32.0759 68.0578 35.3044 67.4196 37.5813C66.9952 39.1697 66.9431 41.4984 68.2699 41.4984C71.028 41.4984 75.0068 34.5629 76.3318 32.4986C77.3928 30.8586 78.5078 29.1108 80.0985 26.8882C77.3927 25.512 74.3161 26.9937 72.1411 29.4288V29.4288ZM62.2736 51.5022C59.0927 53.9374 59.6756 57.4326 63.9199 56.1092C67.6325 54.9442 69.8078 50.7615 71.3469 46.9502C69.1191 48.1153 65.2998 49.1729 62.2736 51.5022ZM75.0595 44.3034C78.9322 42.3449 82.1676 38.7983 84.3407 34.8287C84.7658 34.0344 85.7213 33.6112 85.0328 34.8287C83.7583 37.1047 82.3257 39.2746 80.5236 41.127C78.9322 42.8213 77.0211 44.2501 74.6878 45.3083C72.0891 51.292 69.436 56.0551 64.2374 57.2202C58.6153 58.4908 57.8736 53.568 61.9053 50.8157C65.1921 48.5916 67.0495 48.169 71.8228 45.9449C73.4681 42.6087 75.1121 37.2097 76.4928 34.1393C76.2272 34.4046 75.1121 35.9933 74.6878 36.6278C73.6261 38.0568 71.9825 40.3864 70.2314 41.7631C65.9891 45.2041 63.4955 41.5515 64.7144 36.8917C65.7762 32.9229 67.9515 29.6416 71.2932 27.2055C73.5215 25.5648 77.8178 24.9301 80.3626 26.4655L80.5236 26.3057C82.1676 23.9248 83.5995 22.2306 85.8801 21.701C80.9999 26.8882 77.1813 39.0099 75.0595 44.3034" fill="#55C5CE"/>
<path d="M96.965 26.2532C94.792 26.2532 92.6694 27.5771 90.9726 29.429C88.586 32.1288 86.7282 35.3046 86.1978 37.5815C85.7734 39.3281 85.8795 41.4985 87.2587 41.4985C89.9651 41.4985 93.9418 34.5631 95.321 32.4987C96.807 30.1694 97.6564 28.6353 100.361 27.7876C100.467 27.7876 100.574 27.7354 100.733 27.7354C100.097 26.73 98.3976 26.2532 96.965 26.2532V26.2532ZM99.4593 41.3389C98.8227 41.9749 98.0274 42.5575 97.1245 42.8756C96.436 43.14 95.588 43.2449 94.6851 42.9797C92.6694 42.3451 92.564 39.8044 92.9869 37.8459C92.9869 37.7398 92.9869 37.5815 93.0418 37.4751C92.0328 38.8518 90.601 40.6515 89.1691 41.7632C84.9254 45.2043 82.4319 41.5516 83.6516 36.8919C84.6606 32.9765 86.9404 29.6937 90.282 27.2057C91.7672 26.1482 94.0493 25.4066 96.278 25.4066C98.7166 25.4066 100.786 26.201 101.476 27.5243C99.9905 29.429 98.2922 32.6051 97.1786 34.8289C96.436 36.3633 95.3209 38.7985 95.2171 40.4398C95.1622 41.2342 95.3751 42.2396 96.4887 42.2396C97.603 42.2396 98.7166 41.1814 99.4593 40.3335C101.051 38.5874 102.324 36.4689 103.704 34.0346C104.021 33.5041 104.447 33.9804 104.127 34.5631C102.908 36.8919 101.476 39.3281 99.4593 41.3389Z" fill="#55C5CE"/>
<path d="M113.677 41.8163C109.751 45.0991 105.984 42.3973 107.629 37.6865C108.531 35.1458 110.653 32.8706 112.349 30.4877C113.251 29.2173 113.783 27.3649 111.82 27.1005C110.336 26.8886 108.053 27.1005 107.258 26.9422C106.78 29.5884 104.817 33.5043 103.227 36.152C102.696 36.9996 102.589 36.0465 102.855 35.5701C104.341 32.7115 105.878 29.9586 106.41 26.9422C105.666 26.5178 105.031 25.5652 104.765 24.5592C104.128 21.9658 106.251 19.8481 107.204 22.7601C107.576 23.8191 107.417 25.3541 107.311 25.9888C108.479 26.4122 111.927 26.1484 113.783 26.0409C117.125 25.8299 115.534 29.271 114.632 30.8065C113.677 32.499 112.934 33.6635 111.979 35.1458C108.267 40.8628 109.751 44.3039 113.677 40.8109C115.64 39.0634 117.389 35.7276 118.346 33.9807C118.663 33.4524 118.928 34.2459 118.61 34.8292C117.389 37.0518 115.957 39.9116 113.677 41.8163" fill="#55C5CE"/>
</g>
<defs>
<clipPath id="clip0">
<rect width="196" height="58" fill="white"/>
</clipPath>
</defs>
</svg>
