<svg width="417" height="67" viewBox="0 0 417 67" fill="none" xmlns="http://www.w3.org/2000/svg">
<g clip-path="url(#clip0_11_69)">
<path d="M0 36.5486H30.8663V67.0002H49.3895V18.2744H0V36.5486Z" fill="#1C1D22"/>
<path d="M86.4359 0H49.3896V18.2742H86.4359V0Z" fill="#1C1D22"/>
<path d="M153.898 18.2744H117.302V25.2599H131.697V60.6565H139.503V25.2599H153.898V18.2744Z" fill="#1C1D22"/>
<path d="M201.778 31.521H194.939V35.2236C192.337 32.4179 188.768 30.8052 184.956 30.8052C176.85 30.8052 169.644 36.8938 169.644 46.0844C169.644 55.275 176.841 61.3637 184.956 61.3637C188.826 61.3637 192.521 59.751 195.181 56.7067L196.274 60.6479H203.596L201.778 54.082V31.521ZM194.214 46.0844C194.214 51.0952 190.519 54.7978 185.682 54.7978C180.845 54.7978 177.15 51.0952 177.15 46.0844C177.15 41.0736 180.845 37.3711 185.682 37.3711C190.519 37.3711 194.03 40.835 194.214 45.7306V46.0927V46.0844Z" fill="#1C1D22"/>
<path d="M222.336 54.7485C217.19 54.7485 213.437 51.1694 213.437 46.0927C213.437 41.0161 217.007 37.3794 222.086 37.3794L229.892 40.0699V32.8458C227.532 31.7103 224.629 30.8135 221.544 30.8135C213.312 30.8135 205.931 36.9021 205.931 46.0927C205.931 55.2833 213.312 61.372 221.544 61.372C225.355 61.372 228.199 60.4176 231.043 58.7473L228.566 52.2966C226.873 53.6707 224.696 54.7403 222.336 54.7403V54.7485Z" fill="#1C1D22"/>
<path d="M263.603 31.5214H254.462L243.57 44.9V18.2744H236.072V60.6565H243.57V46.3316L254.52 60.6565H264.028L251.501 45.4924L263.603 31.5214Z" fill="#1C1D22"/>
<path d="M272.676 38.7451C272.676 37.1325 273.702 36.3014 275.82 36.3014H275.945L284.661 39.642V33.0761C282.542 31.883 279.582 30.8052 275.945 30.8052C270.141 30.8052 266.146 33.9729 266.146 38.9261C266.146 49.5484 279.515 47.1047 279.515 52.8313C279.515 54.7402 278.181 55.8757 275.945 55.8757H275.22L266.146 52.4117V59.0352C268.806 60.4093 272.017 61.3637 275.403 61.3637C282.117 61.3637 286.295 58.1383 286.295 52.4693C286.295 41.9622 272.685 44.0521 272.685 38.7369L272.676 38.7451Z" fill="#1C1D22"/>
<path d="M344.392 31.521H337.553V35.2236C334.951 32.4179 331.381 30.8052 327.57 30.8052C319.464 30.8052 312.258 36.8938 312.258 46.0844C312.258 55.275 319.455 61.3637 327.57 61.3637C331.44 61.3637 335.134 59.751 337.795 56.7067L338.887 60.6479H346.21L344.392 54.082V31.521ZM336.827 46.0844C336.827 51.0952 333.133 54.7978 328.296 54.7978C323.458 54.7978 319.764 51.0952 319.764 46.0844C319.764 41.0736 323.458 37.3711 328.296 37.3711C333.133 37.3711 336.644 40.835 336.827 45.7306V46.0927V46.0844Z" fill="#1C1D22"/>
<path d="M364.416 54.7485C359.27 54.7485 355.517 51.1694 355.517 46.0927C355.517 41.0161 359.087 37.3794 364.166 37.3794L371.972 40.0699V32.8458C369.612 31.7103 366.71 30.8135 363.624 30.8135C355.392 30.8135 348.011 36.9021 348.011 46.0927C348.011 55.2833 355.392 61.372 363.624 61.372C367.435 61.372 370.279 60.4176 373.123 58.7473L370.646 52.2966C368.953 53.6707 366.776 54.7403 364.416 54.7403V54.7485Z" fill="#1C1D22"/>
<path d="M404.69 31.5214H395.558L384.666 44.9V18.2744H377.16V60.6565H384.666V46.3316L395.616 60.6565H405.116L392.589 45.4924L404.69 31.5214Z" fill="#1C1D22"/>
<path d="M412.046 56.1555H412.088C413.339 56.1555 414.023 55.3656 414.023 54.4112C414.023 53.4567 413.339 52.708 412.088 52.708H409.761V58.6074H411.095V56.0568L412.763 58.6074H414.423L412.88 56.3612L412.054 56.1555H412.046ZM411.095 55.2258V53.8435H411.879C412.313 53.8435 412.663 54.0821 412.663 54.5182C412.663 54.9542 412.313 55.2258 411.879 55.2258H411.095Z" fill="#1C1D22"/>
<path d="M411.696 50.4946C408.718 50.4946 406.375 52.5845 406.375 55.6618C406.375 58.739 408.718 60.8289 411.696 60.8289C414.673 60.8289 417 58.739 417 55.6618C417 52.5845 414.656 50.4946 411.696 50.4946ZM411.679 59.9074C409.21 59.9074 407.342 58.1631 407.342 55.6535C407.342 53.144 409.21 51.3997 411.679 51.3997C414.148 51.3997 416.016 53.144 416.016 55.6535C416.016 58.1631 414.148 59.9074 411.679 59.9074Z" fill="#1C1D22"/>
<path d="M150.337 60.6561H157.835V38.3255H168.21V31.521H150.337V60.6561Z" fill="#1C1D22"/>
<path d="M300.59 24.6757H293.218V31.7188H288.806V38.2847H293.218V51.3918C293.218 57.2501 296.428 60.6482 303.017 60.6482H306.286V54.0247L303.492 54.2551C301.416 54.2551 300.582 52.7905 300.582 50.388V38.2765H310.89V31.7106H300.582V24.6675L300.59 24.6757Z" fill="#1C1D22"/>
</g>
<defs>
<clipPath id="clip0_11_69">
<rect width="417" height="67" fill="white"/>
</clipPath>
</defs>
</svg>
